<svg id="Component_7_1" data-name="Component 7 – 1" xmlns="http://www.w3.org/2000/svg" width="787" height="576" viewBox="0 0 787 576">
  <g id="illustration-secondary" transform="translate(-1169 -322)">
    <rect id="Rectangle_3" data-name="Rectangle 3" width="479" height="486" rx="15" transform="translate(1169 322)" fill="#fafafa"/>
    <rect id="Rectangle_4" data-name="Rectangle 4" width="479" height="56" rx="15" transform="translate(1169 322)" fill="#dbe1f2"/>
    <rect id="Rectangle_5" data-name="Rectangle 5" width="95" height="23" rx="11.5" transform="translate(1194 340)" fill="#ebafa4"/>
    <rect id="Rectangle_6" data-name="Rectangle 6" width="35" height="23" rx="11.5" transform="translate(1592 339)" fill="#ebafa4"/>
    <rect id="Rectangle_7" data-name="Rectangle 7" width="479" height="184" rx="15" transform="translate(1169 624)" fill="#dbe1f2"/>
    <rect id="Rectangle_8" data-name="Rectangle 8" width="143" height="120" rx="30" transform="translate(1242 448)" fill="#bae2b5"/>
    <rect id="Rectangle_9" data-name="Rectangle 9" width="141" height="29" rx="10" transform="translate(1475 448)" fill="#f2e9a4"/>
    <rect id="Rectangle_10" data-name="Rectangle 10" width="141" height="31" rx="10" transform="translate(1475 493)" fill="#9bf2ef"/>
    <rect id="Rectangle_11" data-name="Rectangle 11" width="141" height="28" rx="10" transform="translate(1475 540)" fill="#bbc2f4"/>
    <rect id="Rectangle_12" data-name="Rectangle 12" width="271" height="29" rx="8" transform="translate(1356 744)" fill="#e5b8b0"/>
    <rect id="Rectangle_13" data-name="Rectangle 13" width="86" height="31" rx="8" transform="translate(1228 742)" fill="#e5b8b0"/>
  </g>
  <g id="indicator_1" data-name="indicator 1" transform="translate(-160 -1229)">
    <circle id="Ellipse_1" data-name="Ellipse 1" cx="12" cy="12" r="12" transform="translate(318 1249)" fill="#eff1f7"/>
    <circle id="Ellipse_2" data-name="Ellipse 2" cx="12" cy="12" r="12" transform="translate(919 1347)" fill="#eff1f7"/>
    <line id="Line_1" data-name="Line 1" x2="602.5" y2="95" transform="translate(329 1264.5)" fill="none" stroke="#eff1f7" stroke-width="6"/>
  </g>
  <g id="indicator_2" data-name="indicator 2" transform="translate(71 -1187)">
    <circle id="Ellipse_1-2" data-name="Ellipse 1" cx="12" cy="12" r="12" transform="translate(348 1314)" fill="#eff1f7"/>
    <path id="Path_2" data-name="Path 2" d="M12,0A12,12,0,0,1,24,12a12.142,12.142,0,0,1-3.515,8.485A11.788,11.788,0,0,1,12,24,12,12,0,0,1,12,0Z" transform="translate(688 1387)" fill="#eff1f7"/>
    <path id="Path_1" data-name="Path 1" d="M30.88,76.484,370.549,149.23" transform="translate(329.5 1249.5)" fill="none" stroke="#eff1f7" stroke-width="6"/>
  </g>
  <g id="indicator_3" data-name="indicator 3" transform="translate(73 -1137)">
    <circle id="Ellipse_1-3" data-name="Ellipse 1" cx="12" cy="12" r="12" transform="translate(291 1311)" fill="#eff1f7"/>
    <circle id="Ellipse_2-2" data-name="Ellipse 2" cx="12" cy="12" r="12" transform="translate(686 1424)" fill="#eff1f7"/>
    <path id="Path_1-2" data-name="Path 1" d="M-22.266,76.407,368.07,186.756" transform="translate(329.5 1249.5)" fill="none" stroke="#eff1f7" stroke-width="6"/>
  </g>
  <g id="indicator_4" data-name="indicator 4" transform="translate(-173 -1092)">
    <circle id="Ellipse_1-4" data-name="Ellipse 1" cx="12" cy="12" r="12" transform="translate(347 1307)" fill="#eff1f7"/>
    <circle id="Ellipse_2-3" data-name="Ellipse 2" cx="12" cy="12" r="12" transform="translate(934 1478)" fill="#eff1f7"/>
    <path id="Path_1-3" data-name="Path 1" d="M31.727,66.21,616.944,233.391" transform="translate(329.22 1256.129)" fill="none" stroke="#eff1f7" stroke-width="6"/>
  </g>
  <g id="indicator_5" data-name="indicator 5" transform="translate(-107 -994)">
    <circle id="Ellipse_1-5" data-name="Ellipse 1" cx="12" cy="12" r="12" transform="translate(347 1319)" fill="#eff1f7"/>
    <circle id="Ellipse_2-4" data-name="Ellipse 2" cx="12" cy="12" r="12" transform="translate(870 1465)" fill="#eff1f7"/>
    <path id="Path_1-4" data-name="Path 1" d="M29.78,74.647,553.155,220.266" transform="translate(329.22 1256.353)" fill="none" stroke="#eff1f7" stroke-width="6"/>
  </g>
  <g id="indicator_6" data-name="indicator 6" transform="translate(69 -894)">
    <circle id="Ellipse_1-6" data-name="Ellipse 1" cx="12" cy="12" r="12" transform="translate(347 1319)" fill="#eff1f7"/>
    <circle id="Ellipse_2-5" data-name="Ellipse 2" cx="12" cy="12" r="12" transform="translate(694 1446)" fill="#eff1f7"/>
    <path id="Path_1-5" data-name="Path 1" d="M29.78,68.122,382.308,195.327" transform="translate(329.22 1262.878)" fill="none" stroke="#eff1f7" stroke-width="6"/>
  </g>
</svg>
