<svg xmlns="http://www.w3.org/2000/svg" width="28.211" height="29.423" viewBox="0 0 28.211 29.423">
  <path id="Icon_zocial-instagram" data-name="Icon zocial-instagram" d="M2.549,29.45a3.321,3.321,0,0,1-1.543-.914A3.271,3.271,0,0,1,.151,27c-.1-.408-.1-.793-.1-12.148C.04,2.1.024,2.8.344,2.079A3.363,3.363,0,0,1,1.948.418C2.659.09,1.964.107,14.29.124L25.646.136,26,.262A3.419,3.419,0,0,1,28.115,2.47l.121.368.011,11.843c.017,13.154.044,12.171-.358,13.022a3.349,3.349,0,0,1-1.395,1.455c-.8.414.11.385-12.37.379C4.583,29.531,2.83,29.519,2.549,29.45Zm21.972-3.5c.452-.333.463-.368.48-2.558.017-2.133.006-2.242-.331-2.581-.3-.31-.447-.328-2.442-.322l-1.819.006-.248.138a1.381,1.381,0,0,0-.408.4l-.165.253-.006,1.9c-.006,1.041.017,1.989.044,2.1a1.066,1.066,0,0,0,.562.724l.276.144,1.913-.017,1.907-.017Zm-9.272-5.582a5.6,5.6,0,0,0,4.222-4.427,7.321,7.321,0,0,0,.061-1.868,5.593,5.593,0,0,0-4.283-4.795c-.1-.011-.325-.046-.491-.075a5.06,5.06,0,0,0-2.282.247A5.312,5.312,0,0,0,9.842,11.4a5.815,5.815,0,0,0,.1,6.985,5.438,5.438,0,0,0,3.638,2.064A5.52,5.52,0,0,0,15.249,20.367Zm-9.6-3.731A9.477,9.477,0,0,1,6.38,10.8,8.453,8.453,0,0,1,8.028,8.438a8.381,8.381,0,0,1,7.5-2.553,8.88,8.88,0,0,1,7.023,6.669,9.3,9.3,0,0,1,.226,3.219,6.571,6.571,0,0,1-.226,1.242c-.017.029-.011.052.017.057.209.023,2.354.017,2.392-.011s.044-2.57.039-6.416l-.017-6.387-.165-.247a1.4,1.4,0,0,0-.413-.379L24.157,3.5l-10.066.017-10.06.011-.226.155a1.484,1.484,0,0,0-.353.374l-.132.218L3.3,10.628c-.006,3.5-.006,6.376.011,6.41a5.692,5.692,0,0,0,1.229.057H5.751Z" transform="translate(-0.044 -0.117)" fill="#aebac6"/>
</svg>
