<svg xmlns="http://www.w3.org/2000/svg" width="28.411" height="26.746" viewBox="0 0 28.411 26.746">
  <path id="Icon_awesome-whatsapp" data-name="Icon awesome-whatsapp" d="M24.156,6.137A14.425,14.425,0,0,0,14.2,2.25C6.437,2.25.12,8.2.12,15.5A12.674,12.674,0,0,0,2,22.131L0,29l7.464-1.845a14.732,14.732,0,0,0,6.729,1.612H14.2c7.756,0,14.212-5.946,14.212-13.254a12.941,12.941,0,0,0-4.255-9.373ZM14.2,26.531A12.239,12.239,0,0,1,8.238,25l-.425-.239L3.387,25.85l1.18-4.066-.279-.418A10.51,10.51,0,0,1,2.5,15.5C2.5,9.432,7.75,4.489,14.206,4.489a11.973,11.973,0,0,1,8.27,3.23,10.759,10.759,0,0,1,3.558,7.791c0,6.078-5.384,11.021-11.834,11.021Zm6.418-8.251c-.349-.167-2.08-.967-2.4-1.075s-.558-.167-.793.167-.907,1.075-1.116,1.3-.412.251-.761.084a9.43,9.43,0,0,1-4.788-3.94c-.361-.585.361-.543,1.034-1.809a.583.583,0,0,0-.032-.579c-.089-.167-.793-1.8-1.084-2.46-.285-.645-.577-.555-.793-.567s-.438-.012-.672-.012A1.341,1.341,0,0,0,8.27,9.8a3.634,3.634,0,0,0-1.23,2.764,6.3,6.3,0,0,0,1.433,3.427,15.387,15.387,0,0,0,6.012,5c2.232.907,3.107.985,4.224.83A3.607,3.607,0,0,0,21.08,20.25a2.619,2.619,0,0,0,.2-1.576C21.2,18.525,20.966,18.441,20.617,18.28Z" transform="translate(0 -2.25)" fill="#aebac6"/>
</svg>
